<svg xmlns="http://www.w3.org/2000/svg" viewBox="0 0 64 64">
  <defs>
    <linearGradient id="bg" x1="0%" y1="0%" x2="100%" y2="100%">
      <stop offset="0%" style="stop-color:#f97316"/>
      <stop offset="100%" style="stop-color:#c2410c"/>
    </linearGradient>
    <linearGradient id="glow" x1="0%" y1="0%" x2="100%" y2="100%">
      <stop offset="0%" style="stop-color:#fbbf24;stop-opacity:0.6"/>
      <stop offset="100%" style="stop-color:#f97316;stop-opacity:0"/>
    </linearGradient>
  </defs>
  <!-- Background rounded square -->
  <rect width="64" height="64" rx="14" fill="url(#bg)"/>
  <!-- Inner glow -->
  <rect width="64" height="64" rx="14" fill="url(#glow)"/>
  <!-- Diya/lamp flame shape -->
  <ellipse cx="32" cy="42" rx="14" ry="7" fill="#7c2d12" opacity="0.6"/>
  <ellipse cx="32" cy="42" rx="11" ry="5.5" fill="#431407" opacity="0.8"/>
  <!-- Diya bowl -->
  <path d="M18 42 Q22 50 32 51 Q42 50 46 42 Z" fill="#92400e"/>
  <path d="M20 42 Q24 49 32 50 Q40 49 44 42 Z" fill="#b45309"/>
  <!-- Wick -->
  <line x1="32" y1="42" x2="32" y2="28" stroke="#fbbf24" stroke-width="1.5" stroke-linecap="round"/>
  <!-- Flame -->
  <path d="M32 14 C28 20 26 25 28 29 C29 32 31 33 32 33 C33 33 35 32 36 29 C38 25 36 20 32 14Z" fill="#fef08a"/>
  <path d="M32 18 C30 22 29 26 30.5 29 C31 31 31.5 32 32 32 C32.5 32 33 31 33.5 29 C35 26 34 22 32 18Z" fill="#f97316"/>
  <path d="M32 22 C31 24 30.5 26 31 28 C31.5 30 32 31 32 31 C32 31 32.5 30 33 28 C33.5 26 33 24 32 22Z" fill="#fbbf24"/>
</svg>
